<svg xmlns="http://www.w3.org/2000/svg" viewBox="0 0 1200 630" role="img" aria-label="Karom EduMart social share image">
  <defs>
    <linearGradient id="bg" x1="0" x2="1" y1="0" y2="1">
      <stop offset="0%" stop-color="#071f33"/>
      <stop offset="60%" stop-color="#0b3558"/>
      <stop offset="100%" stop-color="#0f766e"/>
    </linearGradient>
    <linearGradient id="gold" x1="0" x2="1" y1="0" y2="1">
      <stop offset="0%" stop-color="#fff3b0"/>
      <stop offset="45%" stop-color="#d4af37"/>
      <stop offset="100%" stop-color="#8a6b12"/>
    </linearGradient>
  </defs>
  <rect width="1200" height="630" fill="url(#bg)"/>
  <circle cx="1040" cy="110" r="130" fill="#ffffff" opacity="0.06"/>
  <circle cx="170" cy="520" r="180" fill="#ffffff" opacity="0.05"/>
  <g transform="translate(86 88)">
    <path d="M160 0 290 64v138c0 86-54 140-130 188C84 342 30 288 30 202V64L160 0Z" fill="url(#gold)"/>
    <path d="M160 34 260 83v116c0 64-39 104-100 144-61-40-100-80-100-144V83l100-49Z" fill="#ffffff" opacity="0.16"/>
    <path d="M112 103h42l18 74 15-74h29l16 61 22-61h36l-43 108h-37l-14-58-15 58h-35l-34-108Z" fill="#fff1b5"/>
  </g>
  <text x="420" y="220" font-family="Arial, Helvetica, sans-serif" font-size="76" font-weight="900" letter-spacing="2" fill="url(#gold)">KAROM EDUMART</text>
  <text x="420" y="295" font-family="Arial, Helvetica, sans-serif" font-size="34" font-weight="600" fill="#d6e8ff">Premium education marketplace for students and schools</text>
  <text x="420" y="355" font-family="Arial, Helvetica, sans-serif" font-size="28" font-weight="500" fill="#d6e8ff">Books • Stationery • School supplies • Smart learning tools</text>
</svg>
